<svg enable-background="new 0 0 64 64" height="64" viewBox="0 0 64 64" width="64" xmlns="http://www.w3.org/2000/svg"><path clip-rule="evenodd" d="m52 34c0 1.105-.895 2-2 2s-2-.895-2-2 .895-2 2-2 2 .895 2 2zm-12 0c0 1.105-.895 2-2 2s-2-.895-2-2 .895-2 2-2 2 .895 2 2zm-26-15.501c0-1.379 1.12-2.499 2.5-2.499 1.382 0 2.501 1.12 2.501 2.499 0 1.382-1.12 2.5-2.501 2.5-1.38 0-2.5-1.118-2.5-2.5zm15.001 0c0-1.379 1.118-2.499 2.5-2.499 1.379 0 2.499 1.12 2.499 2.499 0 1.382-1.12 2.5-2.499 2.5-1.382 0-2.5-1.118-2.5-2.5zm29.605 31.771.923 3.463c.41 1.826-.684 3.666-2.506 4.15-1.064.281-2.144.041-2.968-.561-.002-.002 0 .004-.002 0l-3.341-2.385c-2.099.674-4.354 1.063-6.712 1.063-4.896 0-9.36-1.604-12.829-4.236-.638-.334-1.076-.996-1.076-1.764 0-1.105.895-2 2-2 .468 0 .892.166 1.231.436.005-.004.01-.012.015-.016 2.831 2.219 6.559 3.58 10.659 3.58 1.554 0 3.045-.219 4.463-.584.216-.037.478-.098.854-.217 1.357-.426 2.766-.148 3.84.625l2.345 1.676-.702-2.627c-.303-1.217.044-2.557 1.03-3.465.037-.033.061-.07.092-.104 2.526-2.476 4.078-5.726 4.078-9.304 0-7.73-7.164-14-16-14s-16 6.27-16 14c0 .506.034 1.006.095 1.498.237 3.229-2.124 6.08-5.363 6.41-.177.016-.349.016-.521.02-2.286-.156-4.485-.586-6.55-1.256l-3.714 2.65c-.002.004 0-.002-.002 0-.824.602-1.903.842-2.967.561-1.823-.484-2.917-2.324-2.507-4.15l.953-3.57c-4.566-3.823-7.424-9.195-7.424-15.162 0-11.6 10.744-21.001 24-21.001 7.894 0 14.875 3.353 19.248 8.499.42.369.688.899.688 1.501 0 1.105-.894 2-2 2-.63 0-1.183-.296-1.551-.752l-.01.01c-3.616-4.385-9.597-7.258-16.375-7.258-11.045 0-20 7.612-20 17.001 0 4.87 2.429 9.245 6.293 12.341.022.023.029.045.053.064.909.713 1.256 1.863 1.001 2.916l-.847 3.178 3.445-2.461c.686-.465 1.573-.617 2.419-.33.034.014.063.006.097.016 1.595.555 3.29.947 5.06 1.137 1.272.021 2.381-.914 2.526-2.205.017-.146.022-.291.012-.436-.002-.039.01-.055.017-.082-.03-.381-.076-.754-.076-1.139 0-9.941 8.955-18 20-18s20 8.059 20 18c0 4.746-2.059 9.051-5.394 12.27z" fill="#7bb32e" fill-rule="evenodd"/></svg>